<svg id="meeting_logo_02" xmlns="http://www.w3.org/2000/svg" width="159.5" height="48.798" viewBox="0 0 159.5 48.798">
  <g id="Group_402" data-name="Group 402" transform="translate(45.924 34.752)">
    <g id="Group_389" data-name="Group 389" transform="translate(0 2.4)">
      <path id="Path_1035" data-name="Path 1035" d="M646.461,1431.151c.026-.427.051-1.112.051-1.7v-7.185H648v3.54h.025a1.953,1.953,0,0,1,1.758-.92c1.375,0,2.314,1.24,2.306,3.094,0,2.2-1.244,3.3-2.534,3.3a1.847,1.847,0,0,1-1.718-1h-.03l-.072.875Zm1.539-2.434a1.538,1.538,0,0,0,.044.372,1.227,1.227,0,0,0,1.175,1c.878,0,1.366-.8,1.366-2.037,0-1.1-.444-1.98-1.357-1.98a1.278,1.278,0,0,0-1.178,1.035,1.822,1.822,0,0,0-.049.4Z" transform="translate(-646.461 -1422.262)" fill="#afb3b5"/>
      <path id="Path_1036" data-name="Path 1036" d="M668.234,1431.406l.984,3.308c.112.39.222.828.305,1.174h.033c.083-.34.186-.784.287-1.179l.855-3.3h1.556l-1.419,4.249a9.752,9.752,0,0,1-1.926,3.814,3.127,3.127,0,0,1-1.52.836l-.376-1.262a2.839,2.839,0,0,0,1.636-1.43.625.625,0,0,0,.092-.276.708.708,0,0,0-.069-.28l-2.067-5.65Z" transform="translate(-660.553 -1428.659)" fill="#afb3b5"/>
    </g>
    <g id="Group_392" data-name="Group 392" transform="translate(29.882 0)">
      <path id="Path_1037" data-name="Path 1037" d="M753.447,1429.482a3.734,3.734,0,0,0-2.189.549,3.639,3.639,0,0,0-2.189-.575l-.027,0v0q-3.127,0-3.115,2.869c0,.007,0,.012,0,.018v4.141h.956c.61-.038.914-.307.914-.843V1432c.041-.7.453-1.043,1.261-1.047s1.219.349,1.26,1.047v4.486h1.856v-4.461c.014-.7.429-1.048,1.247-1.048s1.233.345,1.274,1.048v3.643c0,.537.3.8.914.843h.956v-4.141C756.578,1430.44,755.539,1429.482,753.447,1429.482Z" transform="translate(-745.926 -1424.894)" fill="#afb3b5"/>
      <path id="Path_1038" data-name="Path 1038" d="M790.828,1432.969c0,2.325-1.122,3.5-3.338,3.5s-3.325-1.175-3.325-3.5c0-2.351,1.108-3.513,3.325-3.513S790.828,1430.619,790.828,1432.969Zm-4.793,0c.014,1.316.5,1.98,1.441,1.98s1.413-.69,1.427-2.031c0-1.316-.471-1.968-1.413-1.968C786.521,1430.951,786.036,1431.628,786.036,1432.969Z" transform="translate(-772.678 -1424.894)" fill="#afb3b5"/>
      <path id="Path_1039" data-name="Path 1039" d="M879.918,1431.863c-2.895,0-4.335-1.763-4.335-4.472,0-2.8,1.523-4.484,4.5-4.484a4.48,4.48,0,0,1,2.784.792,3.211,3.211,0,0,1,1.136,2.248h-1.164a.946.946,0,0,1-.9-.524,1.89,1.89,0,0,0-1.856-.945c-1.787,0-2.576,1.162-2.576,2.913,0,1.7.762,2.9,2.521,2.9a1.9,1.9,0,0,0,1.957-1.113.776.776,0,0,1,.758-.458H884C883.825,1430.726,882.3,1431.863,879.918,1431.863Z" transform="translate(-836.631 -1420.313)" fill="#afb3b5"/>
      <g id="Group_390" data-name="Group 390" transform="translate(19.039 2.597)">
        <path id="Path_1040" data-name="Path 1040" d="M811.2,1429.534c.015,1.608,1.559.641,1.65.606.3-.1,1.022.965-.077,1.516a3.266,3.266,0,0,1-1.4.2,2.385,2.385,0,0,1-1.538-.511,2.2,2.2,0,0,1-.539-1.66v-6.645a3.651,3.651,0,0,1,.358-.083,2.6,2.6,0,0,1,.494-.045,1.323,1.323,0,0,1,.777.2.985.985,0,0,1,.278.837v.818h1.487a2.365,2.365,0,0,1,.131.351,1.644,1.644,0,0,1,.062.466.962.962,0,0,1-.176.645.6.6,0,0,1-.471.2H811.2Z" transform="translate(-809.298 -1422.915)" fill="#afb3b5"/>
      </g>
      <g id="Group_391" data-name="Group 391" transform="translate(45.88)">
        <path id="Path_1041" data-name="Path 1041" d="M899.569,1416.866v-2.288h-.927v-.306h2.229v.306h-.93v2.288Z" transform="translate(-898.642 -1414.272)" fill="#afb3b5"/>
        <path id="Path_1042" data-name="Path 1042" d="M907.3,1416.866v-2.594h.56l.666,1.837q.092.256.134.384.048-.142.15-.416l.674-1.805h.5v2.594h-.359v-2.171l-.818,2.171h-.336l-.814-2.208v2.208Z" transform="translate(-904.696 -1414.272)" fill="#afb3b5"/>
      </g>
    </g>
    <g id="Group_393" data-name="Group 393" transform="translate(60.856 2.735)">
      <path id="Path_1043" data-name="Path 1043" d="M850.854,1452.855l-.062,0S850.815,1452.854,850.854,1452.855Z" transform="translate(-850.262 -1443.995)" fill="#afb3b5"/>
      <path id="Path_1044" data-name="Path 1044" d="M853.2,1423.375H850a.959.959,0,0,0-.969.932v7.923h.748c.373-.031,1.1-.239,1.17-1.388l.007-1.871h2.382a2.6,2.6,0,0,0,2.9-2.8C856.231,1424.358,855.192,1423.375,853.2,1423.375Zm-.346,4.024h-1.87v-2.517h1.967c.9,0,1.357.422,1.357,1.265S853.821,1427.412,852.851,1427.4Z" transform="translate(-849.028 -1423.375)" fill="#afb3b5"/>
    </g>
    <g id="Group_395" data-name="Group 395" transform="translate(14.626 2.575)">
      <g id="Group_394" data-name="Group 394">
        <path id="Path_1045" data-name="Path 1045" d="M696.97,1452.323l-.062,0S696.931,1452.322,696.97,1452.323Z" transform="translate(-696.378 -1443.463)" fill="#afb3b5"/>
        <path id="Path_1046" data-name="Path 1046" d="M699.313,1422.842h-3.2a.959.959,0,0,0-.969.933v7.923h.85a1.011,1.011,0,0,0,1.068-1.068l.007-2.192h2.382a2.6,2.6,0,0,0,2.9-2.8C702.347,1423.826,701.308,1422.842,699.313,1422.842Zm-.346,4.024H697.1v-2.517h1.967c.9,0,1.357.422,1.357,1.265S699.937,1426.879,698.967,1426.866Z" transform="translate(-695.144 -1422.842)" fill="#afb3b5"/>
      </g>
      <path id="Path_1047" data-name="Path 1047" d="M702.666,1438.74s1.44-.16,1.6,2.239c0,0-.16,1.6,2.4,1.12h0s-.272-.224-.48-1.28c0,0-.208-2.724-2.079-3.2-1.013-.258-3.359.554-3.359.554Z" transform="translate(-699.063 -1433.145)" fill="#afb3b5"/>
    </g>
    <path id="Path_1048" data-name="Path 1048" d="M725.742,1434.3a1.721,1.721,0,0,1-1.176.494c-.889,0-1.367-.533-1.435-1.587h3.915c.333-.039.722-.18.767-.622q-.082-3.411-3.247-3.41c-2.2.013-3.309,1.183-3.309,3.524s1.094,3.55,3.281,3.615a2.9,2.9,0,0,0,3.158-2.263h-1.34A.816.816,0,0,0,725.742,1434.3Zm-1.2-3.706c.779,0,1.231.468,1.34,1.378h-2.721C723.295,1431.067,723.76,1430.6,724.539,1430.6Z" transform="translate(-698.787 -1424.702)" fill="#afb3b5"/>
    <path id="Path_1049" data-name="Path 1049" d="M828.508,1433.772a1.719,1.719,0,0,1-1.176.494c-.888,0-1.367-.533-1.435-1.587h3.915c.332-.039.722-.18.767-.622q-.082-3.411-3.247-3.41c-2.2.013-3.309,1.183-3.309,3.524s1.094,3.55,3.282,3.615a2.9,2.9,0,0,0,3.158-2.263h-1.34A.818.818,0,0,0,828.508,1433.772Zm-1.2-3.706c.779,0,1.23.468,1.34,1.379h-2.72C826.061,1430.534,826.526,1430.066,827.306,1430.066Z" transform="translate(-770.679 -1424.329)" fill="#afb3b5"/>
  </g>
  <g id="Group_400" data-name="Group 400" transform="translate(45.873 6.989)">
    <path id="Path_1050" data-name="Path 1050" d="M751.027,1350.643a3.958,3.958,0,0,1-2.772,1.225c-2.1,0-3.223-1.322-3.384-3.933H754.1a1.793,1.793,0,0,0,1.808-1.541q-.194-8.455-7.655-8.451c-5.189.032-7.8,2.933-7.8,8.735s2.579,8.8,7.737,8.961c4.19,0,6.511-2,7.446-5.609h-3.159A1.879,1.879,0,0,0,751.027,1350.643Zm-2.836-9.187c1.837,0,2.9,1.16,3.159,3.417h-6.414C745.257,1342.617,746.353,1341.457,748.19,1341.457Z" transform="translate(-712.165 -1333.112)" fill="#0070bb"/>
    <path id="Path_1051" data-name="Path 1051" d="M808.555,1350.643a3.959,3.959,0,0,1-2.772,1.225c-2.1,0-3.223-1.322-3.384-3.933h9.231a1.793,1.793,0,0,0,1.808-1.541q-.194-8.455-7.655-8.451c-5.189.032-7.8,2.933-7.8,8.735s2.579,8.8,7.736,8.961c4.19,0,6.511-2,7.446-5.609h-3.159A1.878,1.878,0,0,0,808.555,1350.643Zm-2.836-9.187c1.837,0,2.9,1.16,3.159,3.417h-6.414C802.785,1342.617,803.881,1341.457,805.719,1341.457Z" transform="translate(-752.41 -1333.112)" fill="#0070bb"/>
    <g id="Group_396" data-name="Group 396" transform="translate(62.757 0.71)">
      <path id="Path_1052" data-name="Path 1052" d="M859.833,1340.365c.037,3.921,3.8,1.562,4.024,1.478.734-.252,2.492,2.352-.188,3.7a7.96,7.96,0,0,1-3.422.5,5.822,5.822,0,0,1-3.749-1.246,5.374,5.374,0,0,1-1.314-4.049v-16.2q.3-.093.872-.2a6.392,6.392,0,0,1,1.2-.109,3.228,3.228,0,0,1,1.9.483,2.4,2.4,0,0,1,.678,2.04v1.551h3.625a5.793,5.793,0,0,1,.318.856,4.016,4.016,0,0,1,.152,1.137,2.345,2.345,0,0,1-.429,1.573,1.459,1.459,0,0,1-1.148.483h-2.518Z" transform="translate(-855.184 -1324.225)" fill="#0070bb"/>
    </g>
    <path id="Path_1053" data-name="Path 1053" d="M665.091,1338.151a9.331,9.331,0,0,0-5.47,1.373,9.094,9.094,0,0,0-5.47-1.437c-.025,0-.045,0-.069,0v0c-5.21,0-7.8,2.382-7.787,7.171,0,.016,0,.029,0,.045v10.351h2.389c1.523-.1,2.285-.767,2.285-2.107v-9.105c.1-1.747,1.133-2.607,3.152-2.617,2.017.011,3.045.871,3.149,2.616v11.213H661.9v-11.149c.035-1.757,1.073-2.619,3.116-2.619s3.081.862,3.185,2.619v9.105c0,1.341.762,2.011,2.285,2.107h2.389v-10.351C672.915,1340.546,670.318,1338.151,665.091,1338.151Z" transform="translate(-646.291 -1333.213)" fill="#0070bb"/>
    <g id="Group_399" data-name="Group 399" transform="translate(74.775)">
      <g id="Group_398" data-name="Group 398" transform="translate(0 4.875)">
        <g id="Group_397" data-name="Group 397">
          <path id="Path_1054" data-name="Path 1054" d="M897.522,1338.087a1.9,1.9,0,0,1,2.165,2.145v15.581h-4.5v-17.726Z" transform="translate(-895.188 -1338.087)" fill="#0070bb"/>
        </g>
      </g>
      <circle id="Ellipse_264" data-name="Ellipse 264" cx="2.119" cy="2.119" r="2.119" transform="translate(0.125)" fill="#0070bb"/>
    </g>
    <path id="Path_1055" data-name="Path 1055" d="M979.431,1338.088c-5.287.1-7.93,2.933-7.93,8.607,0,5.867,2.257,8.833,6.8,8.833a5.464,5.464,0,0,0,4.867-2.515v1.741c0,2.644-1.16,3.965-3.417,3.965a3.113,3.113,0,0,1-2.712-1.007,3.247,3.247,0,0,1-.247-.312,1.193,1.193,0,0,0-.932-.486h-3.911c1,3.611,3.45,5.416,7.318,5.416,5.448-.1,8.156-2.257,8.156-6.545V1345.7C987.426,1340.57,984.75,1338.055,979.431,1338.088Zm.064,13.669c-2.321,0-3.482-1.644-3.578-4.932,0-3.45,1.192-5.158,3.642-5.158s3.643,1.708,3.611,5.158Q982.978,1351.756,979.5,1351.756Z" transform="translate(-873.799 -1333.213)" fill="#0070bb"/>
    <path id="Path_1056" data-name="Path 1056" d="M924.048,1338.362c-4.911,0-7.383,2.439-7.383,7.35v10.293h2.143a2.223,2.223,0,0,0,2.248-2.314v-8.857c.033-1.789,1.008-2.667,2.927-2.667s2.894.878,2.992,2.667v8.846a2.1,2.1,0,0,0,2.146,2.325h2.212v-10.293C931.365,1340.8,928.959,1338.362,924.048,1338.362Z" transform="translate(-835.438 -1333.405)" fill="#0070bb"/>
  </g>
  <g id="Group_401" data-name="Group 401">
    <path id="Path_1057" data-name="Path 1057" d="M511.943,1310.165a5.8,5.8,0,1,0-5.26-6.285A5.8,5.8,0,0,0,511.943,1310.165Z" transform="translate(-502.736 -1298.596)" fill="#f97253"/>
    <path id="Path_1058" data-name="Path 1058" d="M499.906,1382.978a5.8,5.8,0,1,0,5.26,6.285A5.8,5.8,0,0,0,499.906,1382.978Z" transform="translate(-493.597 -1357.612)" fill="#f97253"/>
    <path id="Path_1059" data-name="Path 1059" d="M584.56,1344.348a5.8,5.8,0,1,0,5.26,6.285A5.8,5.8,0,0,0,584.56,1344.348Z" transform="translate(-552.819 -1330.587)" fill="#f97253"/>
    <path id="Path_1060" data-name="Path 1060" d="M500.3,1347.089a11.182,11.182,0,0,1-.51-3.049,11.377,11.377,0,0,1,1.674-6.239c.132-.215.274-.425.421-.631a7.984,7.984,0,0,1-3.162-2.313,15.233,15.233,0,0,0-2.13,13.5A7.911,7.911,0,0,1,500.3,1347.089Z" transform="translate(-495.188 -1323.964)" fill="#f97253"/>
    <path id="Path_1061" data-name="Path 1061" d="M555.428,1319.448a11.221,11.221,0,0,1,3.7,3.717,7.944,7.944,0,0,1,3.441-1.9,15.2,15.2,0,0,0-10.548-7.2c-.3-.051-.608-.09-.915-.123a8.043,8.043,0,0,1,.091,1.211,7.938,7.938,0,0,1-.469,2.7A11.365,11.365,0,0,1,555.428,1319.448Z" transform="translate(-533.568 -1309.334)" fill="#f97253"/>
    <path id="Path_1062" data-name="Path 1062" d="M549.1,1383.79a11.27,11.27,0,0,1-11.86,5.176c0,.062,0,.122,0,.184a7.926,7.926,0,0,1-.881,3.638c.185.038.37.075.556.106a15.194,15.194,0,0,0,15.73-7.422,7.94,7.94,0,0,1-3.466-1.83C549.154,1383.691,549.129,1383.742,549.1,1383.79Z" transform="translate(-523.515 -1358.092)" fill="#f97253"/>
  </g>
</svg>
