<svg id="setting_icon" xmlns="http://www.w3.org/2000/svg" width="20" height="20.001" viewBox="0 0 20 20.001">
  <path id="Subtraction_12" data-name="Subtraction 12" d="M-847.591-62.5h-1.817a.911.911,0,0,1-.91-.909v-1.12a8.1,8.1,0,0,1-2.532-1.051l-.793.793a.9.9,0,0,1-.643.266.9.9,0,0,1-.643-.266l-1.286-1.286a.9.9,0,0,1-.265-.642.9.9,0,0,1,.265-.643l.793-.793a8.093,8.093,0,0,1-1.051-2.531h-1.119a.91.91,0,0,1-.909-.91v-1.817a.91.91,0,0,1,.909-.91h1.119a8.092,8.092,0,0,1,1.051-2.531l-.793-.794a.911.911,0,0,1,0-1.286l1.286-1.285a.9.9,0,0,1,.643-.265.9.9,0,0,1,.643.265l.793.794a8.085,8.085,0,0,1,2.532-1.052v-1.119a.911.911,0,0,1,.91-.909h1.817a.91.91,0,0,1,.91.909v1.119a8.074,8.074,0,0,1,2.531,1.052l.793-.794a.9.9,0,0,1,.643-.265.9.9,0,0,1,.642.265l1.286,1.285a.911.911,0,0,1,0,1.286l-.793.794a8.1,8.1,0,0,1,1.051,2.531h1.12a.91.91,0,0,1,.908.91v1.817a.91.91,0,0,1-.908.91h-1.12a8.1,8.1,0,0,1-1.051,2.531l.793.793a.9.9,0,0,1,.265.643.9.9,0,0,1-.265.642l-1.286,1.286a.9.9,0,0,1-.642.266.9.9,0,0,1-.643-.266l-.793-.793a8.094,8.094,0,0,1-2.531,1.051v1.12A.91.91,0,0,1-847.591-62.5Zm-.909-14.182a4.186,4.186,0,0,0-4.181,4.181,4.187,4.187,0,0,0,4.181,4.182,4.187,4.187,0,0,0,4.182-4.182A4.187,4.187,0,0,0-848.5-76.682Z" transform="translate(858.5 82.5)" fill="#415c6e"/>
</svg>
