<svg version="1.1" x="0px" y="0px"
	 width="24px" height="24px" viewBox="0 0 24 24" >
<g>
	<path fill="#2F444D" d="M12,22.072c-4.319,0-7.833-3.516-7.833-7.834C4.157,14.113,3.974,9.681,11.131,2.61l0.689-0.682
		l0.703,0.669c0.74,0.703,7.222,7.004,7.311,11.622c0.04,2.055-0.74,4.002-2.196,5.486C16.163,21.209,14.108,22.072,12,22.072z
		 M11.841,4.736c-5.702,5.9-5.676,9.422-5.675,9.458c0.001,3.262,2.618,5.879,5.834,5.879c1.575,0,3.108-0.645,4.21-1.768
		c1.076-1.098,1.653-2.535,1.624-4.047C17.778,11.395,13.972,6.917,11.841,4.736z"/>
</g>
<g>
	<path fill="#2F444D" d="M12.257,18.336l-0.283-1.979c2.09-0.299,2.385-2.914,2.396-3.025l1.99,0.193
		C16.22,15.008,15.18,17.92,12.257,18.336z"/>
</g>
</svg>
