<svg xmlns="http://www.w3.org/2000/svg" width="20" viewBox="0 0 682 682"><path d="M551.451-1.043H87.882C39.413-1.043-.02 38.383-.02 86.859v283.695c0 48.366 39.262 87.73 87.59 87.902v128.737l185.01-128.736h278.871c48.469 0 87.902-39.435 87.902-87.902V86.859c.001-48.476-39.433-87.902-87.902-87.902zm50.44 371.597c0 27.809-22.626 50.438-50.439 50.438H260.826l-135.793 94.494v-94.494H87.882c-27.813 0-50.439-22.63-50.439-50.438V86.859c0-27.817 22.627-50.439 50.439-50.439h463.569c27.813 0 50.439 22.622 50.439 50.439v283.695z"></path><path d="M171.105 131.331h297.124v37.464H171.105v-37.464zM171.105 211.253h297.124v37.464H171.105v-37.464zM171.105 291.175h297.124v37.464H171.105v-37.464z"></path></svg>