<svg class="cw_mute" xmlns="http://www.w3.org/2000/svg" width="30" viewBox="0 0 841.889 595.281"><g><path d="M426.076 472.119c62.248 0 112.897-50.65 112.897-112.897V209.518L330.103 418.39c19.922 32.176 55.432 53.729 95.973 53.729zM538.974 112.898C538.974 50.65 488.324 0 426.076 0S313.179 50.65 313.179 112.898v231.811l225.795-225.796v-6.015z"></path><path d="M659.128 44.061a10.25 10.25 0 00-14.513 0L288.434 400.244c-3.891-13.014-6.046-26.767-6.046-41.022V297.64c0-5.676-4.598-10.264-10.264-10.264-5.665 0-10.263 4.588-10.263 10.264v61.581c0 20.116 3.808 39.309 10.458 57.137l-89.559 89.559a10.253 10.253 0 000 14.513 10.236 10.236 0 007.256 3.007c2.628 0 5.255-1.006 7.257-3.007l83.965-83.966c26.151 48.844 76.299 82.826 134.574 86.46v51.83h-51.317c-5.665 0-10.263 4.588-10.263 10.264s4.598 10.264 10.263 10.264h123.161c5.666 0 10.264-4.588 10.264-10.264s-4.598-10.264-10.264-10.264H436.34v-51.841c85.761-5.337 153.951-76.616 153.951-163.691V297.64c0-5.676-4.598-10.264-10.264-10.264-5.665 0-10.263 4.588-10.263 10.264v61.581c0 79.233-64.455 143.688-143.688 143.688-57.055 0-106.299-33.511-129.483-81.8L659.128 58.574a10.25 10.25 0 000-14.513z"></path></g></svg>