<?xml version="1.0" encoding="utf-8"?>
<!-- Generator: Adobe Illustrator 23.1.0, SVG Export Plug-In . SVG Version: 6.00 Build 0)  -->
<svg version="1.1" id="Layer_1" xmlns="http://www.w3.org/2000/svg" xmlns:xlink="http://www.w3.org/1999/xlink" x="0px" y="0px"
	 viewBox="0 0 402.5 256" style="enable-background:new 0 0 402.5 256;" xml:space="preserve">
<style type="text/css">
	.st0{fill:#FFFFFF;}
	.st1{fill:#6D6E71;}
</style>
<path class="st0" d="M61.2,254.9H12.7c-4.4,0-8-3.6-8-8v-76.5c0-4.4,3.6-8,8-8h48.5c4.4,0,8,3.6,8,8v76.5
	C69.2,251.3,65.6,254.9,61.2,254.9z"/>
<path class="st1" d="M163.4,254.8h-48.5c-4.4,0-8-3.6-8-8v-113c0-4.4,3.6-8,8-8h48.5c4.4,0,8,3.6,8,8v113
	C171.4,251.2,167.8,254.8,163.4,254.8z"/>
<path class="st1" d="M274.6,255.1h-49.9c-4,0-7.3-4.1-7.3-9.2V68.6c0-5,3.3-9.2,7.3-9.2h49.9c4,0,7.3,4.1,7.3,9.2v177.3
	C281.9,250.9,278.7,255.1,274.6,255.1z"/>
<path class="st1" d="M388.4,255.1h-48.5c-4.4,0-8-4.5-8-10V12.8c0-5.5,3.6-10,8-10h48.5c4.4,0,8,4.5,8,10V245
	C396.4,250.5,392.8,255.1,388.4,255.1z"/>
</svg>
