<svg version="1.1" x="0px" y="0px" viewBox="0 0 512 256" >
<path d="M64.2,254.9H15.7c-4.4,0-8-3.6-8-8v-76.5c0-4.4,3.6-8,8-8h48.5c4.4,0,8,3.6,8,8v76.5C72.2,251.3,68.6,254.9,64.2,254.9z"/>
<path d="M163.4,254.8h-48.5c-4.4,0-8-3.6-8-8v-113c0-4.4,3.6-8,8-8h48.5c4.4,0,8,3.6,8,8v113C171.4,251.2,167.8,254.8,163.4,254.8z"
	/>
<path d="M274.6,255.4h-49.9c-4,0-7.3-3.3-7.3-7.3v-141c0-4,3.3-7.3,7.3-7.3h49.9c4,0,7.3,3.3,7.3,7.3v141
	C281.9,252.1,278.7,255.4,274.6,255.4z"/>
<path d="M384.4,255.4h-48.5c-4.4,0-8-3.6-8-8v-185c0-4.4,3.6-8,8-8h48.5c4.4,0,8,3.6,8,8v185C392.4,251.8,388.8,255.4,384.4,255.4z"
	/>
<path d="M496.3,255.4h-48.5c-4.4,0-8-3.6-8-8V10.5c0-4.4,3.6-8,8-8h48.5c4.4,0,8,3.6,8,8v236.9C504.3,251.8,500.7,255.4,496.3,255.4
	z"/>
</svg>
