<!-- Generated by IcoMoon.io -->
<svg version="1.1" xmlns="http://www.w3.org/2000/svg" width="18" height="18" viewBox="0 0 512 511.9">
<title>Virtual Background</title>
<g>
<path fill="#333333" d="M0.5,0.405v511h511v-511H0.5z M486.5,25.405v290.548l-134.388-92.027l-143.513,95.171l-83.488-57.171
L25.5,327.985V25.405H486.5z M25.5,486.405V357.983l99.388-65.909l177.049,121.24l14.125-20.627l-85.208-58.349l121.033-80.264
l134.612,92.18v140.152H25.5z"></path>
<path fill="#333333" d="M212,253.5c39.425,0,71.5-32.075,71.5-71.5s-32.075-71.5-71.5-71.5s-71.5,32.075-71.5,71.5
S172.575,253.5,212,253.5z M212,135.5c25.64,0,46.5,20.86,46.5,46.5s-20.86,46.5-46.5,46.5s-46.5-20.86-46.5-46.5
S186.36,135.5,212,135.5z"></path>
</g>
</svg>